<svg width="72" height="60" viewBox="0 0 72 60" fill="none" xmlns="http://www.w3.org/2000/svg">
<path d="M57 0H15C6.717 0 0 5.5975 0 12.5V47.5C0 54.4025 6.717 60 15 60H57C65.286 60 72 54.4025 72 47.5V12.5C72 5.5975 65.286 0 57 0ZM43.602 48.975C42.387 49.17 42 48.5476 42 48.015V42.5275C42 40.66 41.214 39.445 40.35 38.825C45.696 38.33 51.312 36.6376 51.312 28.9576C51.312 26.7725 50.376 24.9875 48.8431 23.59C49.089 23.085 49.911 21.05 48.606 18.2975C48.606 18.2975 46.5931 17.76 42.012 20.3476C40.092 19.8976 38.04 19.68 36 19.67C33.96 19.6775 31.908 19.8976 29.991 20.3425C25.4071 17.755 23.3911 18.2926 23.3911 18.2926C22.089 21.0475 22.911 23.08 23.16 23.5876C21.624 24.9875 20.688 26.77 20.688 28.955C20.688 36.615 26.2891 38.3326 31.623 38.84C30.936 39.34 30.315 40.22 30.099 41.515C28.728 42.025 25.257 42.9076 23.115 39.85C23.115 39.85 21.846 37.93 19.434 37.7875C19.434 37.7875 17.094 37.7626 19.2691 39.005C19.2691 39.005 20.844 39.62 21.936 41.93C21.936 41.93 23.325 45.5 30 44.29V48.0125C30 48.54 29.613 49.16 28.416 48.975C18.876 46.3325 12 38.835 12 30C12 18.9526 22.746 10 36 10C49.254 10 60 18.9526 60 30C60 38.8325 53.133 46.3275 43.602 48.975Z" fill="white"/>
</svg>
