<svg width="72" height="60" viewBox="0 0 72 60" fill="none" xmlns="http://www.w3.org/2000/svg">
<path d="M49.5 0H22.5C10.0755 0 0 8.39626 0 18.75V41.25C0 51.6037 10.0755 60 22.5 60H49.5C61.9245 60 72 51.6037 72 41.25V18.75C72 8.39626 61.9245 0 49.5 0ZM65.2498 41.25C65.2498 48.4874 58.1849 54.3749 49.5 54.3749H22.5C13.815 54.3749 6.75 48.4874 6.75 41.25V18.75C6.75 11.5125 13.815 5.625 22.5 5.625H49.5C58.1849 5.625 65.2498 11.5125 65.2498 18.75V41.25Z" fill="url(#paint0_linear)"/>
<path d="M36 15C26.0595 15 18 21.7163 18 30C18 38.2837 26.0595 45 36 45C45.9405 45 54 38.2837 54 30C54 21.7163 45.9405 15 36 15ZM36 39.3749C29.799 39.3749 24.75 35.1674 24.75 30C24.75 24.8287 29.799 20.625 36 20.625C42.2009 20.625 47.2498 24.8287 47.2498 30C47.2498 35.1674 42.2009 39.3749 36 39.3749Z" fill="url(#paint1_linear)"/>
<path d="M55.3505 15.8739C56.6753 15.8739 57.7492 14.9791 57.7492 13.8752C57.7492 12.7713 56.6753 11.8765 55.3505 11.8765C54.0257 11.8765 52.9519 12.7713 52.9519 13.8752C52.9519 14.9791 54.0257 15.8739 55.3505 15.8739Z" fill="url(#paint2_linear)"/>
<defs>
<linearGradient id="paint0_linear" x1="36" y1="0" x2="36" y2="60" gradientUnits="userSpaceOnUse">
<stop stop-color="#FF41EC"/>
<stop offset="1" stop-color="#FFC700" stop-opacity="0.56"/>
</linearGradient>
<linearGradient id="paint1_linear" x1="36" y1="15" x2="36" y2="45" gradientUnits="userSpaceOnUse">
<stop stop-color="#FF41EC"/>
<stop offset="1" stop-color="#FFC700" stop-opacity="0.56"/>
</linearGradient>
<linearGradient id="paint2_linear" x1="55.3505" y1="11.8765" x2="55.3505" y2="15.8739" gradientUnits="userSpaceOnUse">
<stop stop-color="#FF41EC"/>
<stop offset="1" stop-color="#FFC700" stop-opacity="0.56"/>
</linearGradient>
</defs>
</svg>
