<svg width="72" height="60" viewBox="0 0 72 60" fill="none" xmlns="http://www.w3.org/2000/svg">
<path d="M72 11.3963C69.3225 12.375 66.4695 13.0237 63.4951 13.3387C66.5551 11.8163 68.8905 9.42374 69.9886 6.54C67.1354 7.95749 63.9855 8.95874 60.6286 9.51751C57.9194 7.11374 54.0585 5.625 49.8465 5.625C41.6745 5.625 35.0954 11.1525 35.0954 17.9287C35.0954 18.9037 35.1945 19.8413 35.4375 20.7337C23.166 20.235 12.3075 15.3337 5.01299 7.86751C3.73951 9.70874 2.99249 11.8163 2.99249 14.085C2.99249 18.345 5.62499 22.1213 9.54899 24.3074C7.17751 24.27 4.85099 23.6963 2.88 22.7925C2.88 22.83 2.88 22.8787 2.88 22.9275C2.88 28.9049 7.99649 33.87 14.706 35.0138C13.5045 35.2874 12.195 35.4187 10.836 35.4187C9.89102 35.4187 8.93699 35.3738 8.04151 35.2087C9.954 40.08 15.381 43.6613 21.834 43.7774C16.812 47.0513 10.4355 49.0238 3.53249 49.0238C2.322 49.0238 1.161 48.9787 0 48.8551C6.53849 52.3687 14.2875 54.3749 22.644 54.3749C49.8059 54.3749 64.656 35.6251 64.656 19.3725C64.656 18.8287 64.6335 18.3037 64.6019 17.7825C67.5314 16.05 69.9929 13.8863 72 11.3963Z" fill="#23D7FF"/>
</svg>
