<svg width="72" height="60" viewBox="0 0 72 60" fill="none" xmlns="http://www.w3.org/2000/svg">
<g clip-path="url(#clip0)">
<path d="M70.7557 15.8169C69.8744 12.626 66.7424 10.2718 62.972 9.92067C54.0437 9.09011 45.0067 9.08578 36.0115 9.09011C27.0147 9.08578 17.9764 9.09011 9.04803 9.92067C5.27987 10.2718 2.15015 12.626 1.26869 15.8169C0.0141214 20.3611 0 25.3215 0 30.0002C0 34.6789 0 39.6386 1.25457 44.1822C2.13454 47.3724 5.26501 49.7266 9.03539 50.0784C17.963 50.9095 27.0005 50.914 35.9973 50.9095C44.9957 50.914 54.0309 50.9095 62.9579 50.0784C66.7261 49.7273 69.8587 47.3731 70.7403 44.1822C71.9955 39.638 72 34.6782 72 30.0002C72 25.3215 72.0104 20.3611 70.7557 15.8169ZM26.7085 39.3129C26.7085 32.6758 26.7085 26.1082 26.7085 19.4705C34.3392 22.7884 41.9195 26.084 49.5984 29.4222C41.9432 32.7309 34.3592 36.0066 26.7085 39.3129Z" fill="#D93535"/>
</g>
<defs>
<clipPath id="clip0">
<rect width="72" height="60" fill="white"/>
</clipPath>
</defs>
</svg>
