<svg width="393" height="116" viewBox="0 0 393 116" fill="none" xmlns="http://www.w3.org/2000/svg">
<path d="M66.24 100H49.824L22.368 58.432V100H5.952V32.608H22.368L49.824 74.368V32.608H66.24V100ZM119.612 100.672C113.276 100.672 107.451 99.2 102.139 96.256C96.8915 93.312 92.6995 89.216 89.5635 83.968C86.4915 78.656 84.9555 72.704 84.9555 66.112C84.9555 59.52 86.4915 53.6 89.5635 48.352C92.6995 43.104 96.8915 39.008 102.139 36.064C107.451 33.12 113.276 31.648 119.612 31.648C125.948 31.648 131.74 33.12 136.988 36.064C142.3 39.008 146.46 43.104 149.468 48.352C152.54 53.6 154.076 59.52 154.076 66.112C154.076 72.704 152.54 78.656 149.468 83.968C146.396 89.216 142.236 93.312 136.988 96.256C131.74 99.2 125.948 100.672 119.612 100.672ZM119.612 85.696C124.988 85.696 129.275 83.904 132.475 80.32C135.74 76.736 137.372 72 137.372 66.112C137.372 60.16 135.74 55.424 132.475 51.904C129.275 48.32 124.988 46.528 119.612 46.528C114.172 46.528 109.819 48.288 106.556 51.808C103.355 55.328 101.755 60.096 101.755 66.112C101.755 72.064 103.355 76.832 106.556 80.416C109.819 83.936 114.172 85.696 119.612 85.696ZM221.288 32.608V45.76H203.432V100H187.016V45.76H169.16V32.608H221.288ZM255.543 45.76V59.392H277.527V72.064H255.543V86.848H280.407V100H239.127V32.608H280.407V45.76H255.543ZM325.048 100.672C320.12 100.672 315.704 99.872 311.8 98.272C307.896 96.672 304.76 94.304 302.392 91.168C300.088 88.032 298.872 84.256 298.744 79.84H316.216C316.472 82.336 317.336 84.256 318.808 85.6C320.28 86.88 322.2 87.52 324.568 87.52C327 87.52 328.92 86.976 330.328 85.888C331.736 84.736 332.44 83.168 332.44 81.184C332.44 79.52 331.864 78.144 330.712 77.056C329.624 75.968 328.248 75.072 326.584 74.368C324.984 73.664 322.68 72.864 319.672 71.968C315.32 70.624 311.768 69.28 309.016 67.936C306.264 66.592 303.896 64.608 301.912 61.984C299.928 59.36 298.936 55.936 298.936 51.712C298.936 45.44 301.208 40.544 305.752 37.024C310.296 33.44 316.216 31.648 323.512 31.648C330.936 31.648 336.92 33.44 341.464 37.024C346.008 40.544 348.44 45.472 348.76 51.808H331C330.872 49.632 330.072 47.936 328.6 46.72C327.128 45.44 325.24 44.8 322.936 44.8C320.952 44.8 319.352 45.344 318.136 46.432C316.92 47.456 316.312 48.96 316.312 50.944C316.312 53.12 317.336 54.816 319.384 56.032C321.432 57.248 324.632 58.56 328.984 59.968C333.336 61.44 336.856 62.848 339.544 64.192C342.296 65.536 344.664 67.488 346.648 70.048C348.632 72.608 349.624 75.904 349.624 79.936C349.624 83.776 348.632 87.264 346.648 90.4C344.728 93.536 341.912 96.032 338.2 97.888C334.488 99.744 330.104 100.672 325.048 100.672Z" fill="#379CFA"/>
<path d="M66.24 100V102H68.24V100H66.24ZM49.824 100L48.1552 101.102L48.7481 102H49.824V100ZM22.368 58.432L24.0368 57.3297L20.368 51.7752V58.432H22.368ZM22.368 100V102H24.368V100H22.368ZM5.952 100H3.952V102H5.952V100ZM5.952 32.608V30.608H3.952V32.608H5.952ZM22.368 32.608L24.0392 31.5093L23.4466 30.608H22.368V32.608ZM49.824 74.368L48.1528 75.4667L51.824 81.0505V74.368H49.824ZM49.824 32.608V30.608H47.824V32.608H49.824ZM66.24 32.608H68.24V30.608H66.24V32.608ZM66.24 98H49.824V102H66.24V98ZM51.4928 98.8977L24.0368 57.3297L20.6992 59.5343L48.1552 101.102L51.4928 98.8977ZM20.368 58.432V100H24.368V58.432H20.368ZM22.368 98H5.952V102H22.368V98ZM7.952 100V32.608H3.952V100H7.952ZM5.952 34.608H22.368V30.608H5.952V34.608ZM20.6968 33.7067L48.1528 75.4667L51.4952 73.2693L24.0392 31.5093L20.6968 33.7067ZM51.824 74.368V32.608H47.824V74.368H51.824ZM49.824 34.608H66.24V30.608H49.824V34.608ZM64.24 32.608V100H68.24V32.608H64.24ZM102.139 96.256L101.161 98.0003L101.17 98.0053L102.139 96.256ZM89.5635 83.968L87.8322 84.9692L87.8393 84.9816L87.8467 84.9939L89.5635 83.968ZM89.5635 48.352L87.8467 47.3261L87.842 47.3338L87.8375 47.3416L89.5635 48.352ZM102.139 36.064L101.17 34.3147L101.161 34.3197L102.139 36.064ZM136.988 36.064L136.009 37.8083L136.018 37.8133L136.988 36.064ZM149.467 48.352L147.732 49.3465L147.737 49.3545L147.741 49.3624L149.467 48.352ZM149.467 83.968L151.194 84.9784L151.199 84.9692L149.467 83.968ZM136.988 96.256L137.966 98.0003L136.988 96.256ZM132.475 80.32L130.997 78.9733L130.99 78.9806L130.984 78.988L132.475 80.32ZM132.475 51.904L130.984 53.236L130.996 53.2501L131.009 53.2639L132.475 51.904ZM106.555 51.808L105.089 50.4481L105.082 50.4554L105.076 50.4627L106.555 51.808ZM106.555 80.416L105.064 81.748L105.076 81.7621L105.089 81.7759L106.555 80.416ZM119.612 98.672C113.599 98.672 108.111 97.279 103.109 94.5067L101.17 98.0053C106.792 101.121 112.952 102.672 119.612 102.672V98.672ZM103.118 94.5117C98.1797 91.7414 94.2402 87.8953 91.2803 82.9421L87.8467 84.9939C91.1588 90.5367 95.6033 94.8826 101.161 98.0003L103.118 94.5117ZM91.2948 82.9668C88.4119 77.9816 86.9555 72.3794 86.9555 66.112H82.9555C82.9555 73.0286 84.5711 79.3304 87.8322 84.9692L91.2948 82.9668ZM86.9555 66.112C86.9555 59.8443 88.4119 54.2783 91.2895 49.3624L87.8375 47.3416C84.5711 52.9217 82.9555 59.1957 82.9555 66.112H86.9555ZM91.2803 49.3779C94.2402 44.4247 98.1797 40.5786 103.118 37.8083L101.161 34.3197C95.6033 37.4374 91.1588 41.7833 87.8467 47.3261L91.2803 49.3779ZM103.109 37.8133C108.111 35.041 113.599 33.648 119.612 33.648V29.648C112.952 29.648 106.792 31.199 101.17 34.3147L103.109 37.8133ZM119.612 33.648C125.624 33.648 131.076 35.0409 136.009 37.8083L137.966 34.3197C132.403 31.1991 126.271 29.648 119.612 29.648V33.648ZM136.018 37.8133C141.012 40.5811 144.907 44.4167 147.732 49.3465L151.203 47.3574C148.012 41.7913 143.587 37.4349 137.957 34.3147L136.018 37.8133ZM147.741 49.3624C150.619 54.2783 152.076 59.8443 152.076 66.112H156.076C156.076 59.1957 154.46 52.9217 151.194 47.3416L147.741 49.3624ZM152.076 66.112C152.076 72.3794 150.619 77.9816 147.736 82.9668L151.199 84.9692C154.46 79.3304 156.076 73.0286 156.076 66.112H152.076ZM147.741 82.9576C144.847 87.9023 140.944 91.7435 136.009 94.5117L137.966 98.0003C143.527 94.8805 147.944 90.5297 151.194 84.9784L147.741 82.9576ZM136.009 94.5117C131.076 97.2791 125.624 98.672 119.612 98.672V102.672C126.271 102.672 132.403 101.121 137.966 98.0003L136.009 94.5117ZM119.612 87.696C125.482 87.696 130.34 85.7142 133.967 81.652L130.984 78.988C128.211 82.0938 124.493 83.696 119.612 83.696V87.696ZM133.954 81.6667C137.622 77.6389 139.372 72.3857 139.372 66.112H135.372C135.372 71.6143 133.857 75.8331 130.997 78.9733L133.954 81.6667ZM139.372 66.112C139.372 59.7823 137.626 54.5174 133.942 50.5441L131.009 53.2639C133.853 56.3306 135.372 60.5377 135.372 66.112H139.372ZM133.967 50.572C130.34 46.5098 125.482 44.528 119.612 44.528V48.528C124.493 48.528 128.211 50.1302 130.984 53.236L133.967 50.572ZM119.612 44.528C113.697 44.528 108.784 46.4636 105.089 50.4481L108.022 53.1679C110.855 50.1124 114.646 48.528 119.612 48.528V44.528ZM105.076 50.4627C101.459 54.4407 99.7555 59.735 99.7555 66.112H103.756C103.756 60.457 105.252 56.2153 108.035 53.1533L105.076 50.4627ZM99.7555 66.112C99.7555 72.4331 101.463 77.7156 105.064 81.748L108.047 79.084C105.248 75.9484 103.756 71.6949 103.756 66.112H99.7555ZM105.089 81.7759C108.784 85.7604 113.697 87.696 119.612 87.696V83.696C114.646 83.696 110.855 82.1116 108.022 79.0561L105.089 81.7759ZM221.288 32.608H223.288V30.608H221.288V32.608ZM221.288 45.76V47.76H223.288V45.76H221.288ZM203.432 45.76V43.76H201.432V45.76H203.432ZM203.432 100V102H205.432V100H203.432ZM187.016 100H185.016V102H187.016V100ZM187.016 45.76H189.016V43.76H187.016V45.76ZM169.16 45.76H167.16V47.76H169.16V45.76ZM169.16 32.608V30.608H167.16V32.608H169.16ZM219.288 32.608V45.76H223.288V32.608H219.288ZM221.288 43.76H203.432V47.76H221.288V43.76ZM201.432 45.76V100H205.432V45.76H201.432ZM203.432 98H187.016V102H203.432V98ZM189.016 100V45.76H185.016V100H189.016ZM187.016 43.76H169.16V47.76H187.016V43.76ZM171.16 45.76V32.608H167.16V45.76H171.16ZM169.16 34.608H221.288V30.608H169.16V34.608ZM255.543 45.76V43.76H253.543V45.76H255.543ZM255.543 59.392H253.543V61.392H255.543V59.392ZM277.527 59.392H279.527V57.392H277.527V59.392ZM277.527 72.064V74.064H279.527V72.064H277.527ZM255.543 72.064V70.064H253.543V72.064H255.543ZM255.543 86.848H253.543V88.848H255.543V86.848ZM280.407 86.848H282.407V84.848H280.407V86.848ZM280.407 100V102H282.407V100H280.407ZM239.127 100H237.127V102H239.127V100ZM239.127 32.608V30.608H237.127V32.608H239.127ZM280.407 32.608H282.407V30.608H280.407V32.608ZM280.407 45.76V47.76H282.407V45.76H280.407ZM253.543 45.76V59.392H257.543V45.76H253.543ZM255.543 61.392H277.527V57.392H255.543V61.392ZM275.527 59.392V72.064H279.527V59.392H275.527ZM277.527 70.064H255.543V74.064H277.527V70.064ZM253.543 72.064V86.848H257.543V72.064H253.543ZM255.543 88.848H280.407V84.848H255.543V88.848ZM278.407 86.848V100H282.407V86.848H278.407ZM280.407 98H239.127V102H280.407V98ZM241.127 100V32.608H237.127V100H241.127ZM239.127 34.608H280.407V30.608H239.127V34.608ZM278.407 32.608V45.76H282.407V32.608H278.407ZM280.407 43.76H255.543V47.76H280.407V43.76ZM311.801 98.272L311.042 100.123L311.801 98.272ZM302.392 91.168L300.781 92.3521L300.789 92.3627L300.796 92.3732L302.392 91.168ZM298.745 79.84V77.84H296.686L296.745 79.8979L298.745 79.84ZM316.216 79.84L318.206 79.6359L318.022 77.84H316.216V79.84ZM318.809 85.6L317.46 87.077L317.478 87.0933L317.496 87.1092L318.809 85.6ZM330.328 85.888L331.551 87.4706L331.573 87.4535L331.595 87.4359L330.328 85.888ZM330.712 77.056L329.298 78.4702L329.318 78.4904L329.339 78.51L330.712 77.056ZM326.585 74.368L325.779 76.1986L325.792 76.2044L325.805 76.2099L326.585 74.368ZM319.672 71.968L319.082 73.8789L319.092 73.8819L319.102 73.8848L319.672 71.968ZM301.913 61.984L303.508 60.7778L301.913 61.984ZM305.753 37.024L306.977 38.6051L306.984 38.5997L306.991 38.5943L305.753 37.024ZM341.465 37.024L340.226 38.5943L340.233 38.5997L340.24 38.6051L341.465 37.024ZM348.76 51.808V53.808H350.864L350.758 51.7071L348.76 51.808ZM331 51.808L329.004 51.9254L329.115 53.808H331V51.808ZM328.6 46.72L327.288 48.2292L327.307 48.2458L327.327 48.2619L328.6 46.72ZM318.137 46.432L319.425 47.9618L319.448 47.9425L319.47 47.9225L318.137 46.432ZM319.384 56.032L320.406 54.3123L319.384 56.032ZM328.984 59.968L329.625 58.0734L329.613 58.0692L329.6 58.0651L328.984 59.968ZM339.544 64.192L338.65 65.9809L338.658 65.985L338.667 65.9891L339.544 64.192ZM346.648 70.048L345.068 71.2731L346.648 70.048ZM346.648 90.4L344.958 89.3307L344.95 89.3431L344.943 89.3557L346.648 90.4ZM338.201 97.888L337.306 96.0991L338.201 97.888ZM325.048 98.672C320.338 98.672 316.185 97.9076 312.559 96.4214L311.042 100.123C315.224 101.836 319.903 102.672 325.048 102.672V98.672ZM312.559 96.4214C308.962 94.9471 306.124 92.7913 303.989 89.9628L300.796 92.3732C303.397 95.8167 306.831 98.3969 311.042 100.123L312.559 96.4214ZM304.004 89.9838C301.972 87.2183 300.862 83.8489 300.744 79.7821L296.745 79.8979C296.883 84.6631 298.205 88.8457 300.781 92.3521L304.004 89.9838ZM298.745 81.84H316.216V77.84H298.745V81.84ZM314.227 80.0441C314.52 82.8977 315.539 85.3226 317.46 87.077L320.157 84.123C319.134 83.1894 318.425 81.7743 318.206 79.6359L314.227 80.0441ZM317.496 87.1092C319.406 88.7699 321.826 89.52 324.568 89.52V85.52C322.575 85.52 321.155 84.9901 320.121 84.0908L317.496 87.1092ZM324.568 89.52C327.283 89.52 329.685 88.9132 331.551 87.4706L329.106 84.3054C328.156 85.0388 326.718 85.52 324.568 85.52V89.52ZM331.595 87.4359C333.513 85.8665 334.44 83.706 334.44 81.184H330.44C330.44 82.63 329.96 83.6055 329.062 84.3401L331.595 87.4359ZM334.44 81.184C334.44 79.0007 333.66 77.0885 332.086 75.602L329.339 78.51C330.069 79.1994 330.44 80.0393 330.44 81.184H334.44ZM332.127 75.6418C330.828 74.3428 329.224 73.3132 327.364 72.5261L325.805 76.2099C327.273 76.8308 328.421 77.5932 329.298 78.4702L332.127 75.6418ZM327.39 72.5374C325.676 71.7834 323.279 70.9555 320.243 70.0512L319.102 73.8848C322.082 74.7725 324.293 75.5446 325.779 76.1986L327.39 72.5374ZM320.263 70.057C315.967 68.7303 312.52 67.4215 309.894 66.1389L308.139 69.7331C311.017 71.1385 314.674 72.5176 319.082 73.8789L320.263 70.057ZM309.894 66.1389C307.445 64.9428 305.317 63.1702 303.508 60.7778L300.317 63.1902C302.476 66.0458 305.084 68.2412 308.139 69.7331L309.894 66.1389ZM303.508 60.7778C301.853 58.5888 300.936 55.6251 300.936 51.712H296.936C296.936 56.2469 298.004 60.1312 300.317 63.1902L303.508 60.7778ZM300.936 51.712C300.936 45.9937 302.971 41.7083 306.977 38.6051L304.528 35.4429C299.446 39.3797 296.936 44.8863 296.936 51.712H300.936ZM306.991 38.5943C311.099 35.3545 316.547 33.648 323.512 33.648V29.648C315.886 29.648 309.494 31.5255 304.514 35.4537L306.991 38.5943ZM323.512 33.648C330.616 33.648 336.124 35.359 340.226 38.5943L342.703 35.4537C337.717 31.521 331.257 29.648 323.512 29.648V33.648ZM340.24 38.6051C344.271 41.7283 346.469 46.0873 346.763 51.9089L350.758 51.7071C350.412 44.8567 347.746 39.3597 342.689 35.4429L340.24 38.6051ZM348.76 49.808H331V53.808H348.76V49.808ZM332.997 51.6906C332.841 49.0463 331.837 46.7995 329.874 45.1781L327.327 48.2619C328.308 49.0725 328.904 50.2177 329.004 51.9254L332.997 51.6906ZM329.913 45.2108C328.013 43.5587 325.631 42.8 322.936 42.8V46.8C324.85 46.8 326.244 47.3213 327.288 48.2292L329.913 45.2108ZM322.936 42.8C320.572 42.8 318.461 43.458 316.803 44.9415L319.47 47.9225C320.244 47.23 321.333 46.8 322.936 46.8V42.8ZM316.848 44.9022C315.072 46.3979 314.312 48.5291 314.312 50.944H318.312C318.312 49.3909 318.769 48.514 319.425 47.9618L316.848 44.9022ZM314.312 50.944C314.312 53.9029 315.778 56.2165 318.363 57.7517L320.406 54.3123C318.895 53.4155 318.312 52.3371 318.312 50.944H314.312ZM318.363 57.7517C320.608 59.0843 323.979 60.4508 328.369 61.8709L329.6 58.0651C325.285 56.6692 322.257 55.4117 320.406 54.3123L318.363 57.7517ZM328.344 61.8626C332.649 63.3188 336.075 64.6933 338.65 65.9809L340.439 62.4031C337.638 61.0027 334.024 59.5612 329.625 58.0734L328.344 61.8626ZM338.667 65.9891C341.128 67.1911 343.26 68.9408 345.068 71.2731L348.229 68.8229C346.069 66.0352 343.465 63.8809 340.422 62.3949L338.667 65.9891ZM345.068 71.2731C346.719 73.404 347.625 76.2367 347.625 79.936H351.625C351.625 75.5713 350.546 71.812 348.229 68.8229L345.068 71.2731ZM347.625 79.936C347.625 83.4113 346.733 86.5262 344.958 89.3307L348.339 91.4693C350.532 88.0018 351.625 84.1407 351.625 79.936H347.625ZM344.943 89.3557C343.243 92.1328 340.728 94.3884 337.306 96.0991L339.095 99.6769C343.097 97.6756 346.214 94.9392 348.354 91.4443L344.943 89.3557ZM337.306 96.0991C333.926 97.7892 329.861 98.672 325.048 98.672V102.672C330.348 102.672 335.051 101.699 339.095 99.6769L337.306 96.0991Z" fill="black"/>
<path d="M73.24 100H56.824L29.368 58.432V100H12.952V32.608H29.368L56.824 74.368V32.608H73.24V100ZM126.612 100.672C120.276 100.672 114.451 99.2 109.139 96.256C103.891 93.312 99.6995 89.216 96.5635 83.968C93.4915 78.656 91.9555 72.704 91.9555 66.112C91.9555 59.52 93.4915 53.6 96.5635 48.352C99.6995 43.104 103.891 39.008 109.139 36.064C114.451 33.12 120.276 31.648 126.612 31.648C132.948 31.648 138.74 33.12 143.988 36.064C149.3 39.008 153.46 43.104 156.468 48.352C159.54 53.6 161.076 59.52 161.076 66.112C161.076 72.704 159.54 78.656 156.468 83.968C153.396 89.216 149.236 93.312 143.988 96.256C138.74 99.2 132.948 100.672 126.612 100.672ZM126.612 85.696C131.988 85.696 136.275 83.904 139.475 80.32C142.74 76.736 144.372 72 144.372 66.112C144.372 60.16 142.74 55.424 139.475 51.904C136.275 48.32 131.988 46.528 126.612 46.528C121.172 46.528 116.819 48.288 113.556 51.808C110.355 55.328 108.755 60.096 108.755 66.112C108.755 72.064 110.355 76.832 113.556 80.416C116.819 83.936 121.172 85.696 126.612 85.696ZM228.288 32.608V45.76H210.432V100H194.016V45.76H176.16V32.608H228.288ZM262.543 45.76V59.392H284.527V72.064H262.543V86.848H287.407V100H246.127V32.608H287.407V45.76H262.543ZM332.048 100.672C327.12 100.672 322.704 99.872 318.8 98.272C314.896 96.672 311.76 94.304 309.392 91.168C307.088 88.032 305.872 84.256 305.744 79.84H323.216C323.472 82.336 324.336 84.256 325.808 85.6C327.28 86.88 329.2 87.52 331.568 87.52C334 87.52 335.92 86.976 337.328 85.888C338.736 84.736 339.44 83.168 339.44 81.184C339.44 79.52 338.864 78.144 337.712 77.056C336.624 75.968 335.248 75.072 333.584 74.368C331.984 73.664 329.68 72.864 326.672 71.968C322.32 70.624 318.768 69.28 316.016 67.936C313.264 66.592 310.896 64.608 308.912 61.984C306.928 59.36 305.936 55.936 305.936 51.712C305.936 45.44 308.208 40.544 312.752 37.024C317.296 33.44 323.216 31.648 330.512 31.648C337.936 31.648 343.92 33.44 348.464 37.024C353.008 40.544 355.44 45.472 355.76 51.808H338C337.872 49.632 337.072 47.936 335.6 46.72C334.128 45.44 332.24 44.8 329.936 44.8C327.952 44.8 326.352 45.344 325.136 46.432C323.92 47.456 323.312 48.96 323.312 50.944C323.312 53.12 324.336 54.816 326.384 56.032C328.432 57.248 331.632 58.56 335.984 59.968C340.336 61.44 343.856 62.848 346.544 64.192C349.296 65.536 351.664 67.488 353.648 70.048C355.632 72.608 356.624 75.904 356.624 79.936C356.624 83.776 355.632 87.264 353.648 90.4C351.728 93.536 348.912 96.032 345.2 97.888C341.488 99.744 337.104 100.672 332.048 100.672Z" fill="#379CFA"/>
<path d="M73.24 100V102H75.24V100H73.24ZM56.824 100L55.1552 101.102L55.7481 102H56.824V100ZM29.368 58.432L31.0368 57.3297L27.368 51.7752V58.432H29.368ZM29.368 100V102H31.368V100H29.368ZM12.952 100H10.952V102H12.952V100ZM12.952 32.608V30.608H10.952V32.608H12.952ZM29.368 32.608L31.0392 31.5093L30.4466 30.608H29.368V32.608ZM56.824 74.368L55.1528 75.4667L58.824 81.0505V74.368H56.824ZM56.824 32.608V30.608H54.824V32.608H56.824ZM73.24 32.608H75.24V30.608H73.24V32.608ZM73.24 98H56.824V102H73.24V98ZM58.4928 98.8977L31.0368 57.3297L27.6992 59.5343L55.1552 101.102L58.4928 98.8977ZM27.368 58.432V100H31.368V58.432H27.368ZM29.368 98H12.952V102H29.368V98ZM14.952 100V32.608H10.952V100H14.952ZM12.952 34.608H29.368V30.608H12.952V34.608ZM27.6968 33.7067L55.1528 75.4667L58.4952 73.2693L31.0392 31.5093L27.6968 33.7067ZM58.824 74.368V32.608H54.824V74.368H58.824ZM56.824 34.608H73.24V30.608H56.824V34.608ZM71.24 32.608V100H75.24V32.608H71.24ZM109.139 96.256L108.161 98.0003L108.17 98.0053L109.139 96.256ZM96.5635 83.968L94.8322 84.9692L94.8393 84.9816L94.8467 84.9939L96.5635 83.968ZM96.5635 48.352L94.8467 47.3261L94.842 47.3338L94.8375 47.3416L96.5635 48.352ZM109.139 36.064L108.17 34.3147L108.161 34.3197L109.139 36.064ZM143.988 36.064L143.009 37.8083L143.018 37.8133L143.988 36.064ZM156.467 48.352L154.732 49.3465L154.737 49.3545L154.741 49.3624L156.467 48.352ZM156.467 83.968L158.194 84.9784L158.199 84.9692L156.467 83.968ZM143.988 96.256L144.966 98.0003L143.988 96.256ZM139.475 80.32L137.997 78.9733L137.99 78.9806L137.984 78.988L139.475 80.32ZM139.475 51.904L137.984 53.236L137.996 53.2501L138.009 53.2639L139.475 51.904ZM113.555 51.808L112.089 50.4481L112.082 50.4554L112.076 50.4627L113.555 51.808ZM113.555 80.416L112.064 81.748L112.076 81.7621L112.089 81.7759L113.555 80.416ZM126.612 98.672C120.599 98.672 115.111 97.279 110.109 94.5067L108.17 98.0053C113.792 101.121 119.952 102.672 126.612 102.672V98.672ZM110.118 94.5117C105.18 91.7414 101.24 87.8953 98.2803 82.9421L94.8467 84.9939C98.1588 90.5367 102.603 94.8826 108.161 98.0003L110.118 94.5117ZM98.2948 82.9668C95.4119 77.9816 93.9555 72.3794 93.9555 66.112H89.9555C89.9555 73.0286 91.5711 79.3304 94.8322 84.9692L98.2948 82.9668ZM93.9555 66.112C93.9555 59.8443 95.4119 54.2783 98.2895 49.3624L94.8375 47.3416C91.5711 52.9217 89.9555 59.1957 89.9555 66.112H93.9555ZM98.2803 49.3779C101.24 44.4247 105.18 40.5786 110.118 37.8083L108.161 34.3197C102.603 37.4374 98.1588 41.7833 94.8467 47.3261L98.2803 49.3779ZM110.109 37.8133C115.111 35.041 120.599 33.648 126.612 33.648V29.648C119.952 29.648 113.792 31.199 108.17 34.3147L110.109 37.8133ZM126.612 33.648C132.624 33.648 138.076 35.0409 143.009 37.8083L144.966 34.3197C139.403 31.1991 133.271 29.648 126.612 29.648V33.648ZM143.018 37.8133C148.012 40.5811 151.907 44.4167 154.732 49.3465L158.203 47.3574C155.012 41.7913 150.587 37.4349 144.957 34.3147L143.018 37.8133ZM154.741 49.3624C157.619 54.2783 159.076 59.8443 159.076 66.112H163.076C163.076 59.1957 161.46 52.9217 158.194 47.3416L154.741 49.3624ZM159.076 66.112C159.076 72.3794 157.619 77.9816 154.736 82.9668L158.199 84.9692C161.46 79.3304 163.076 73.0286 163.076 66.112H159.076ZM154.741 82.9576C151.847 87.9023 147.944 91.7435 143.009 94.5117L144.966 98.0003C150.527 94.8805 154.944 90.5297 158.194 84.9784L154.741 82.9576ZM143.009 94.5117C138.076 97.2791 132.624 98.672 126.612 98.672V102.672C133.271 102.672 139.403 101.121 144.966 98.0003L143.009 94.5117ZM126.612 87.696C132.482 87.696 137.34 85.7142 140.967 81.652L137.984 78.988C135.211 82.0938 131.493 83.696 126.612 83.696V87.696ZM140.954 81.6667C144.622 77.6389 146.372 72.3857 146.372 66.112H142.372C142.372 71.6143 140.857 75.8331 137.997 78.9733L140.954 81.6667ZM146.372 66.112C146.372 59.7823 144.626 54.5174 140.942 50.5441L138.009 53.2639C140.853 56.3306 142.372 60.5377 142.372 66.112H146.372ZM140.967 50.572C137.34 46.5098 132.482 44.528 126.612 44.528V48.528C131.493 48.528 135.211 50.1302 137.984 53.236L140.967 50.572ZM126.612 44.528C120.697 44.528 115.784 46.4636 112.089 50.4481L115.022 53.1679C117.855 50.1124 121.646 48.528 126.612 48.528V44.528ZM112.076 50.4627C108.459 54.4407 106.756 59.735 106.756 66.112H110.756C110.756 60.457 112.252 56.2153 115.035 53.1533L112.076 50.4627ZM106.756 66.112C106.756 72.4331 108.463 77.7156 112.064 81.748L115.047 79.084C112.248 75.9484 110.756 71.6949 110.756 66.112H106.756ZM112.089 81.7759C115.784 85.7604 120.697 87.696 126.612 87.696V83.696C121.646 83.696 117.855 82.1116 115.022 79.0561L112.089 81.7759ZM228.288 32.608H230.288V30.608H228.288V32.608ZM228.288 45.76V47.76H230.288V45.76H228.288ZM210.432 45.76V43.76H208.432V45.76H210.432ZM210.432 100V102H212.432V100H210.432ZM194.016 100H192.016V102H194.016V100ZM194.016 45.76H196.016V43.76H194.016V45.76ZM176.16 45.76H174.16V47.76H176.16V45.76ZM176.16 32.608V30.608H174.16V32.608H176.16ZM226.288 32.608V45.76H230.288V32.608H226.288ZM228.288 43.76H210.432V47.76H228.288V43.76ZM208.432 45.76V100H212.432V45.76H208.432ZM210.432 98H194.016V102H210.432V98ZM196.016 100V45.76H192.016V100H196.016ZM194.016 43.76H176.16V47.76H194.016V43.76ZM178.16 45.76V32.608H174.16V45.76H178.16ZM176.16 34.608H228.288V30.608H176.16V34.608ZM262.543 45.76V43.76H260.543V45.76H262.543ZM262.543 59.392H260.543V61.392H262.543V59.392ZM284.527 59.392H286.527V57.392H284.527V59.392ZM284.527 72.064V74.064H286.527V72.064H284.527ZM262.543 72.064V70.064H260.543V72.064H262.543ZM262.543 86.848H260.543V88.848H262.543V86.848ZM287.407 86.848H289.407V84.848H287.407V86.848ZM287.407 100V102H289.407V100H287.407ZM246.127 100H244.127V102H246.127V100ZM246.127 32.608V30.608H244.127V32.608H246.127ZM287.407 32.608H289.407V30.608H287.407V32.608ZM287.407 45.76V47.76H289.407V45.76H287.407ZM260.543 45.76V59.392H264.543V45.76H260.543ZM262.543 61.392H284.527V57.392H262.543V61.392ZM282.527 59.392V72.064H286.527V59.392H282.527ZM284.527 70.064H262.543V74.064H284.527V70.064ZM260.543 72.064V86.848H264.543V72.064H260.543ZM262.543 88.848H287.407V84.848H262.543V88.848ZM285.407 86.848V100H289.407V86.848H285.407ZM287.407 98H246.127V102H287.407V98ZM248.127 100V32.608H244.127V100H248.127ZM246.127 34.608H287.407V30.608H246.127V34.608ZM285.407 32.608V45.76H289.407V32.608H285.407ZM287.407 43.76H262.543V47.76H287.407V43.76ZM318.801 98.272L318.042 100.123L318.801 98.272ZM309.392 91.168L307.781 92.3521L307.789 92.3627L307.796 92.3732L309.392 91.168ZM305.745 79.84V77.84H303.686L303.745 79.8979L305.745 79.84ZM323.216 79.84L325.206 79.6359L325.022 77.84H323.216V79.84ZM325.809 85.6L324.46 87.077L324.478 87.0933L324.496 87.1092L325.809 85.6ZM337.328 85.888L338.551 87.4706L338.573 87.4535L338.595 87.4359L337.328 85.888ZM337.712 77.056L336.298 78.4702L336.318 78.4904L336.339 78.51L337.712 77.056ZM333.585 74.368L332.779 76.1986L332.792 76.2044L332.805 76.2099L333.585 74.368ZM326.672 71.968L326.082 73.8789L326.092 73.8819L326.102 73.8848L326.672 71.968ZM308.913 61.984L310.508 60.7778L308.913 61.984ZM312.753 37.024L313.977 38.6051L313.984 38.5997L313.991 38.5943L312.753 37.024ZM348.465 37.024L347.226 38.5943L347.233 38.5997L347.24 38.6051L348.465 37.024ZM355.76 51.808V53.808H357.864L357.758 51.7071L355.76 51.808ZM338 51.808L336.004 51.9254L336.115 53.808H338V51.808ZM335.6 46.72L334.288 48.2292L334.307 48.2458L334.327 48.2619L335.6 46.72ZM325.137 46.432L326.425 47.9618L326.448 47.9425L326.47 47.9225L325.137 46.432ZM326.384 56.032L327.406 54.3123L326.384 56.032ZM335.984 59.968L336.625 58.0734L336.613 58.0692L336.6 58.0651L335.984 59.968ZM346.544 64.192L345.65 65.9809L345.658 65.985L345.667 65.9891L346.544 64.192ZM353.648 70.048L352.068 71.2731L353.648 70.048ZM353.648 90.4L351.958 89.3307L351.95 89.3431L351.943 89.3557L353.648 90.4ZM345.201 97.888L344.306 96.0991L345.201 97.888ZM332.048 98.672C327.338 98.672 323.185 97.9076 319.559 96.4214L318.042 100.123C322.224 101.836 326.903 102.672 332.048 102.672V98.672ZM319.559 96.4214C315.962 94.9471 313.124 92.7913 310.989 89.9628L307.796 92.3732C310.397 95.8167 313.831 98.3969 318.042 100.123L319.559 96.4214ZM311.004 89.9838C308.972 87.2183 307.862 83.8489 307.744 79.7821L303.745 79.8979C303.883 84.6631 305.205 88.8457 307.781 92.3521L311.004 89.9838ZM305.745 81.84H323.216V77.84H305.745V81.84ZM321.227 80.0441C321.52 82.8977 322.539 85.3226 324.46 87.077L327.157 84.123C326.134 83.1894 325.425 81.7743 325.206 79.6359L321.227 80.0441ZM324.496 87.1092C326.406 88.7699 328.826 89.52 331.568 89.52V85.52C329.575 85.52 328.155 84.9901 327.121 84.0908L324.496 87.1092ZM331.568 89.52C334.283 89.52 336.685 88.9132 338.551 87.4706L336.106 84.3054C335.156 85.0388 333.718 85.52 331.568 85.52V89.52ZM338.595 87.4359C340.513 85.8665 341.44 83.706 341.44 81.184H337.44C337.44 82.63 336.96 83.6055 336.062 84.3401L338.595 87.4359ZM341.44 81.184C341.44 79.0007 340.66 77.0885 339.086 75.602L336.339 78.51C337.069 79.1994 337.44 80.0393 337.44 81.184H341.44ZM339.127 75.6418C337.828 74.3428 336.224 73.3132 334.364 72.5261L332.805 76.2099C334.273 76.8308 335.421 77.5932 336.298 78.4702L339.127 75.6418ZM334.39 72.5374C332.676 71.7834 330.279 70.9555 327.243 70.0512L326.102 73.8848C329.082 74.7725 331.293 75.5446 332.779 76.1986L334.39 72.5374ZM327.263 70.057C322.967 68.7303 319.52 67.4215 316.894 66.1389L315.139 69.7331C318.017 71.1385 321.674 72.5176 326.082 73.8789L327.263 70.057ZM316.894 66.1389C314.445 64.9428 312.317 63.1702 310.508 60.7778L307.317 63.1902C309.476 66.0458 312.084 68.2412 315.139 69.7331L316.894 66.1389ZM310.508 60.7778C308.853 58.5888 307.936 55.6251 307.936 51.712H303.936C303.936 56.2469 305.004 60.1312 307.317 63.1902L310.508 60.7778ZM307.936 51.712C307.936 45.9937 309.971 41.7083 313.977 38.6051L311.528 35.4429C306.446 39.3797 303.936 44.8863 303.936 51.712H307.936ZM313.991 38.5943C318.099 35.3545 323.547 33.648 330.512 33.648V29.648C322.886 29.648 316.494 31.5255 311.514 35.4537L313.991 38.5943ZM330.512 33.648C337.616 33.648 343.124 35.359 347.226 38.5943L349.703 35.4537C344.717 31.521 338.257 29.648 330.512 29.648V33.648ZM347.24 38.6051C351.271 41.7283 353.469 46.0873 353.763 51.9089L357.758 51.7071C357.412 44.8567 354.746 39.3597 349.689 35.4429L347.24 38.6051ZM355.76 49.808H338V53.808H355.76V49.808ZM339.997 51.6906C339.841 49.0463 338.837 46.7995 336.874 45.1781L334.327 48.2619C335.308 49.0725 335.904 50.2177 336.004 51.9254L339.997 51.6906ZM336.913 45.2108C335.013 43.5587 332.631 42.8 329.936 42.8V46.8C331.85 46.8 333.244 47.3213 334.288 48.2292L336.913 45.2108ZM329.936 42.8C327.572 42.8 325.461 43.458 323.803 44.9415L326.47 47.9225C327.244 47.23 328.333 46.8 329.936 46.8V42.8ZM323.848 44.9022C322.072 46.3979 321.312 48.5291 321.312 50.944H325.312C325.312 49.3909 325.769 48.514 326.425 47.9618L323.848 44.9022ZM321.312 50.944C321.312 53.9029 322.778 56.2165 325.363 57.7517L327.406 54.3123C325.895 53.4155 325.312 52.3371 325.312 50.944H321.312ZM325.363 57.7517C327.608 59.0843 330.979 60.4508 335.369 61.8709L336.6 58.0651C332.285 56.6692 329.257 55.4117 327.406 54.3123L325.363 57.7517ZM335.344 61.8626C339.649 63.3188 343.075 64.6933 345.65 65.9809L347.439 62.4031C344.638 61.0027 341.024 59.5612 336.625 58.0734L335.344 61.8626ZM345.667 65.9891C348.128 67.1911 350.26 68.9408 352.068 71.2731L355.229 68.8229C353.069 66.0352 350.465 63.8809 347.422 62.3949L345.667 65.9891ZM352.068 71.2731C353.719 73.404 354.625 76.2367 354.625 79.936H358.625C358.625 75.5713 357.546 71.812 355.229 68.8229L352.068 71.2731ZM354.625 79.936C354.625 83.4113 353.733 86.5262 351.958 89.3307L355.339 91.4693C357.532 88.0018 358.625 84.1407 358.625 79.936H354.625ZM351.943 89.3557C350.243 92.1328 347.728 94.3884 344.306 96.0991L346.095 99.6769C350.097 97.6756 353.214 94.9392 355.354 91.4443L351.943 89.3557ZM344.306 96.0991C340.926 97.7892 336.861 98.672 332.048 98.672V102.672C337.348 102.672 342.051 101.699 346.095 99.6769L344.306 96.0991Z" fill="black"/>
</svg>
