<svg width="646" height="468" viewBox="0 0 646 468" fill="none" xmlns="http://www.w3.org/2000/svg">
<g clip-path="url(#clip0)">
<path d="M560.672 0.530585L0.435181 150.646L85.3278 467.469L645.565 317.354L560.672 0.530585Z" fill="#575A89"/>
<path d="M270.839 100.588L30.9197 164.875L105.336 442.601L345.256 378.315L270.839 100.588Z" fill="white"/>
<path d="M375.884 370.108L615.803 305.822L541.386 28.0954L301.467 92.3815L375.884 370.108Z" fill="white"/>
<path opacity="0.2" d="M249.603 143.848L59.4546 194.798L61.2608 201.539L251.41 150.589L249.603 143.848Z" fill="#6C63FF"/>
<path opacity="0.2" d="M256.828 170.812L66.6795 221.762L68.4857 228.503L258.635 177.553L256.828 170.812Z" fill="#6C63FF"/>
<path opacity="0.2" d="M264.053 197.775L73.9044 248.726L75.7106 255.467L265.859 204.516L264.053 197.775Z" fill="#6C63FF"/>
<path opacity="0.2" d="M520.789 71.1841L330.64 122.134L332.446 128.875L522.595 77.925L520.789 71.1841Z" fill="#6C63FF"/>
<path opacity="0.2" d="M528.014 98.1477L337.865 149.098L339.671 155.839L529.82 104.889L528.014 98.1477Z" fill="#6C63FF"/>
<path opacity="0.2" d="M535.239 125.111L345.09 176.062L346.896 182.803L537.045 131.852L535.239 125.111Z" fill="#6C63FF"/>
<path opacity="0.2" d="M271.278 224.739L81.1293 275.689L82.9355 282.43L273.084 231.48L271.278 224.739Z" fill="#6C63FF"/>
<path opacity="0.2" d="M278.503 251.703L88.3542 302.653L90.1604 309.394L280.309 258.444L278.503 251.703Z" fill="#6C63FF"/>
<path opacity="0.2" d="M285.728 278.666L95.5791 329.617L97.3854 336.358L287.534 285.407L285.728 278.666Z" fill="#6C63FF"/>
<path opacity="0.2" d="M292.953 305.63L102.804 356.58L104.61 363.321L294.759 312.371L292.953 305.63Z" fill="#6C63FF"/>
<path opacity="0.2" d="M300.178 332.594L110.029 383.544L111.835 390.285L301.984 339.335L300.178 332.594Z" fill="#6C63FF"/>
</g>
<defs>
<clipPath id="clip0">
<rect x="0.435181" y="150.646" width="580" height="328" transform="rotate(-15 0.435181 150.646)" fill="white"/>
</clipPath>
</defs>
</svg>
