<svg width="567" height="462" viewBox="0 0 567 462" fill="none" xmlns="http://www.w3.org/2000/svg">
<path d="M456.14 37.6594C461.108 37.6594 465.136 33.7862 465.136 29.0083C465.136 24.2304 461.108 20.3572 456.14 20.3572C451.171 20.3572 447.144 24.2304 447.144 29.0083C447.144 33.7862 451.171 37.6594 456.14 37.6594Z" fill="#E2E2E2"/>
<path d="M403.098 372.434C408.066 372.434 412.094 368.56 412.094 363.782C412.094 359.005 408.066 355.131 403.098 355.131C398.129 355.131 394.102 359.005 394.102 363.782C394.102 368.56 398.129 372.434 403.098 372.434Z" fill="#E2E2E2"/>
<path d="M179.346 120.913C184.315 120.913 188.342 117.04 188.342 112.262C188.342 107.484 184.315 103.611 179.346 103.611C174.378 103.611 170.35 107.484 170.35 112.262C170.35 117.04 174.378 120.913 179.346 120.913Z" fill="#E2E2E2"/>
<path d="M95.7194 462C148.584 462 191.439 455.963 191.439 448.515C191.439 441.068 148.584 435.03 95.7194 435.03C42.855 435.03 0 441.068 0 448.515C0 455.963 42.855 462 95.7194 462Z" fill="#E2E2E2"/>
<path d="M146.284 351.176L170.314 343.937C168.984 334.326 165.948 325.007 161.338 316.384L137.308 323.624C142.947 331.808 146.059 341.361 146.284 351.176Z" fill="#6157FF"/>
<path d="M88.5253 177.737C100.916 177.737 110.961 168.077 110.961 156.161C110.961 144.245 100.916 134.586 88.5253 134.586C76.1342 134.586 66.0892 144.245 66.0892 156.161C66.0892 168.077 76.1342 177.737 88.5253 177.737Z" fill="black"/>
<path d="M64.321 426.529L60.0532 444.118H70.4177L74.6855 424.184L64.321 426.529Z" fill="#E9B1B1"/>
<path d="M114.315 426.529V442.945L124.679 444.118V426.529H114.315Z" fill="#E9B1B1"/>
<path d="M61.2726 240.088C61.2726 240.088 62.4919 265.298 63.7113 267.057C64.9306 268.816 75.9048 294.027 75.9048 294.027L81.3919 277.61C81.3919 277.61 72.8565 264.126 74.0758 256.504C75.2952 248.882 74.527 239.503 74.527 239.503L61.2726 240.088Z" fill="#E9B1B1"/>
<path d="M96.0242 179.113C105.452 179.113 113.095 171.763 113.095 162.697C113.095 153.63 105.452 146.28 96.0242 146.28C86.5962 146.28 78.9532 153.63 78.9532 162.697C78.9532 171.763 86.5962 179.113 96.0242 179.113Z" fill="#E9B1B1"/>
<path d="M82.0016 164.456C82.0016 164.456 82.6113 187.907 78.3436 191.425C74.0758 194.943 102.731 192.011 102.731 192.011C102.731 192.011 96.6339 175.595 101.511 172.077C106.389 168.56 82.0016 164.456 82.0016 164.456Z" fill="#E9B1B1"/>
<path d="M104.56 190.839C104.56 190.839 100.902 184.39 96.0242 184.976C91.1468 185.562 75.2951 186.735 74.6855 187.907C74.0758 189.08 72.2468 193.184 71.0274 194.357C69.8081 195.529 60.6629 197.288 60.0532 204.324C59.4435 211.359 82.0016 254.159 82.0016 254.159C82.0016 254.159 78.9532 264.126 79.5629 266.471C80.1726 268.816 76.5145 275.852 77.1242 278.783C77.7339 281.714 67.979 299.303 72.8564 322.169V359.105C72.8564 359.105 56.3952 423.011 61.2726 427.702C66.15 432.392 82.6113 429.461 85.6597 427.702C88.7081 425.943 101.511 337.412 101.511 337.412L107.608 307.511L108.218 373.176C108.218 373.176 106.998 428.288 111.266 430.047C115.534 431.806 131.995 432.392 133.214 428.874C134.165 426.131 138.825 353.132 140.83 321.133C141.524 310.088 140.621 299.004 138.146 288.198C135.608 277.13 131.924 264.127 127.727 258.849C119.802 248.882 114.924 217.222 114.924 217.222L125.289 199.047C125.289 199.047 119.192 193.184 115.534 193.184C111.876 193.184 104.56 190.839 104.56 190.839Z" fill="black"/>
<path d="M63.7113 200.22L60.4961 202.324C60.4961 202.324 58.2242 240.088 60.0532 242.433C61.8822 244.778 74.5985 243.633 75.5565 241.567C76.5145 239.501 63.7113 200.22 63.7113 200.22Z" fill="black"/>
<path d="M113.705 235.397C113.705 235.397 114.315 260.022 117.973 267.057C121.631 274.093 135.044 303.407 135.044 303.407C135.044 303.407 134.265 335.672 141.056 327.748C147.847 319.824 143.579 301.062 143.579 301.062L131.995 257.676C131.995 257.676 125.898 238.329 126.508 232.466C127.118 226.603 113.705 235.397 113.705 235.397Z" fill="#E9B1B1"/>
<path d="M124.679 433.447C124.679 433.447 125.289 432.978 127.118 434.737C128.947 436.496 133.824 438.841 133.215 445.291C132.605 451.74 128.947 452.912 128.947 452.912V451.154H127.118V454.085C127.118 454.085 124.069 463.466 110.047 457.603C110.047 457.603 109.437 452.912 110.047 449.981C110.656 447.049 110.656 432.978 112.485 433.565C114.315 434.151 119.192 434.737 120.411 437.082C121.631 439.428 125.289 438.606 124.679 433.447Z" fill="black"/>
<path d="M61.8822 434.033C61.8822 434.033 61.2726 433.565 59.4435 435.324C57.6145 437.083 52.7371 439.428 53.3467 445.877C53.9564 452.326 57.6145 453.499 57.6145 453.499V451.74H59.4435V454.671C59.4435 454.671 62.4919 464.052 76.5145 458.189C76.5145 458.189 77.1242 453.499 76.5145 450.567C75.9048 447.636 75.9048 433.565 74.0758 434.151C72.2467 434.737 67.3693 435.324 66.15 437.669C64.9306 440.014 61.2726 439.192 61.8822 434.033Z" fill="black"/>
<path d="M116.753 197.288L125.289 199.047C125.289 199.047 125.289 211.945 127.727 217.222C130.166 222.499 134.434 234.811 132.605 235.397C130.776 235.984 113.705 244.192 112.485 239.501C111.266 234.811 108.218 197.288 116.753 197.288Z" fill="black"/>
<path d="M64.2195 149.329C76.6106 149.329 86.6556 139.669 86.6556 127.753C86.6556 115.838 76.6106 106.178 64.2195 106.178C51.8285 106.178 41.7835 115.838 41.7835 127.753C41.7835 139.669 51.8285 149.329 64.2195 149.329Z" fill="black"/>
<path d="M44.8673 145.619C47.7712 147.638 51.1355 148.958 54.6788 149.469C58.2221 149.981 61.8413 149.669 65.2335 148.56C68.6258 147.451 71.6925 145.577 74.1771 143.094C76.6616 140.611 78.4918 137.593 79.5145 134.29C79.1275 137.25 78.1067 140.1 76.5166 142.661C74.9264 145.222 72.8014 147.437 70.2757 149.169C67.75 150.9 64.8785 152.109 61.8425 152.719C58.8064 153.329 55.6718 153.327 52.6365 152.714C49.6012 152.1 46.7312 150.888 44.2076 149.154C41.6841 147.42 39.5618 145.201 37.9747 142.639C36.3877 140.076 35.3705 137.225 34.9872 134.265C34.6039 131.305 34.8629 128.301 35.7478 125.442C35.2452 129.283 35.8267 133.183 37.4313 136.733C39.0358 140.283 41.6043 143.353 44.8673 145.619Z" fill="black"/>
<path d="M82.5423 175.579C91.6291 175.579 98.9954 168.495 98.9954 159.757C98.9954 151.019 91.6291 143.935 82.5423 143.935C73.4555 143.935 66.0892 151.019 66.0892 159.757C66.0892 168.495 73.4555 175.579 82.5423 175.579Z" fill="black"/>
<path d="M96.3779 164.791C104.432 164.791 110.961 159.881 110.961 153.824C110.961 147.767 104.432 142.856 96.3779 142.856C88.3237 142.856 81.7944 147.767 81.7944 153.824C81.7944 159.881 88.3237 164.791 96.3779 164.791Z" fill="black"/>
<path d="M100.268 169.771C101.796 169.771 103.035 167.663 103.035 165.062C103.035 162.461 101.796 160.353 100.268 160.353C98.7391 160.353 97.4999 162.461 97.4999 165.062C97.4999 167.663 98.7391 169.771 100.268 169.771Z" fill="#AA7179"/>
<path d="M559.466 102.744L247.653 12.7014L172.431 253.595L484.243 343.637L559.466 102.744Z" fill="#E2E2E2"/>
<path d="M372.614 83.191L446.47 111.899" stroke="#2E2C49" stroke-width="2" stroke-miterlimit="10"/>
<path d="M374.491 89.0933L375.597 88.5967L373.047 83.3605L378.665 81.2979L378.228 80.2021L371.387 82.7156L374.491 89.0933Z" fill="#2E2C49"/>
<path d="M440.855 114.889L440.419 113.793L446.036 111.731L443.487 106.495L444.593 105.998L447.696 112.377L440.855 114.889Z" fill="#2E2C49"/>
<path d="M409.542 103.994C413.246 103.994 416.248 101.107 416.248 97.545C416.248 93.9832 413.246 91.0957 409.542 91.0957C405.838 91.0957 402.835 93.9832 402.835 97.545C402.835 101.107 405.838 103.994 409.542 103.994Z" fill="#2E2C49"/>
<path d="M366.985 282.213L435.027 242.374" stroke="#2E2C49" stroke-width="2" stroke-miterlimit="10"/>
<path d="M373.03 284.289L373.276 283.139L367.386 281.98L369.018 276.415L367.843 276.097L365.856 282.875L373.03 284.289Z" fill="#2E2C49"/>
<path d="M434.17 248.491L432.995 248.173L434.628 242.609L428.737 241.449L428.984 240.3L436.158 241.714L434.17 248.491Z" fill="#2E2C49"/>
<path d="M401.006 268.743C404.71 268.743 407.713 265.856 407.713 262.294C407.713 258.732 404.71 255.844 401.006 255.844C397.302 255.844 394.3 258.732 394.3 262.294C394.3 265.856 397.302 268.743 401.006 268.743Z" fill="#2E2C49"/>
<path d="M281.498 155.98L281.522 232.587" stroke="#2E2C49" stroke-width="2" stroke-miterlimit="10"/>
<path d="M276.512 159.867L277.405 160.667L281.497 156.43L285.592 160.665L286.484 159.864L281.496 154.708L276.512 159.867Z" fill="#2E2C49"/>
<path d="M276.533 228.703L277.426 227.903L281.52 232.137L285.613 227.9L286.506 228.7L281.521 233.858L276.533 228.703Z" fill="#2E2C49"/>
<path d="M281.51 200.733C285.213 200.733 288.216 197.845 288.216 194.284C288.216 190.722 285.213 187.834 281.51 187.834C277.806 187.834 274.803 190.722 274.803 194.284C274.803 197.845 277.806 200.733 281.51 200.733Z" fill="#2E2C49"/>
<path d="M335.932 0H224.971V132.503H335.932V0Z" fill="#2E2C49"/>
<path d="M273.514 49.3276H248.332C246.614 39.7742 246.614 30.0079 248.332 20.4545H273.514C270.677 29.8855 270.677 39.8965 273.514 49.3276Z" fill="#FF6584"/>
<path d="M287.389 63.9719H312.571C314.289 54.4185 314.289 44.6522 312.571 35.0988H287.389C290.226 44.5298 290.226 54.5409 287.389 63.9719Z" fill="#6157FF"/>
<path d="M263.612 112.048H288.794C290.512 102.495 290.512 92.7284 288.794 83.175H263.612C266.449 92.606 266.449 102.617 263.612 112.048Z" fill="#6157FF"/>
<path d="M567 126.053H456.039V258.556H567V126.053Z" fill="#2E2C49"/>
<path d="M551.148 154.195H471.89V157.713H551.148V154.195Z" fill="#6157FF"/>
<path d="M551.148 166.508H471.89V170.025H551.148V166.508Z" fill="#6157FF"/>
<path d="M551.148 178.82H471.89V182.338H551.148V178.82Z" fill="#6157FF"/>
<path d="M551.148 191.132H471.89V194.65H551.148V191.132Z" fill="#6157FF"/>
<path d="M551.148 203.444H471.89V206.962H551.148V203.444Z" fill="#6157FF"/>
<path d="M532.248 216.343H490.79V230.414H532.248V216.343Z" fill="#6157FF"/>
<path d="M354.961 256H244V388.503H354.961V256Z" fill="#2E2C49"/>
<path d="M330.016 335.833H250.758V339.351H330.016V335.833Z" fill="#6157FF"/>
<path d="M330.016 348.145H250.758V351.663H330.016V348.145Z" fill="#6157FF"/>
<path d="M330.016 360.457H250.758V363.975H330.016V360.457Z" fill="#6157FF"/>
<path d="M330.016 372.77H250.758V376.287H330.016V372.77Z" fill="#6157FF"/>
<path opacity="0.3" d="M275.038 309.235H249.856C248.138 299.682 248.138 289.916 249.856 280.362H275.038C272.201 289.793 272.201 299.804 275.038 309.235Z" fill="#6157FF"/>
<path opacity="0.3" d="M331.845 283.067H285.51V285.998H331.845V283.067Z" fill="#6157FF"/>
<path opacity="0.3" d="M331.845 293.62H285.51V296.551H331.845V293.62Z" fill="#6157FF"/>
<path opacity="0.3" d="M331.845 304.173H285.51V307.105H331.845V304.173Z" fill="#6157FF"/>
<path opacity="0.3" d="M331.845 314.726H285.51V317.658H331.845V314.726Z" fill="#6157FF"/>
</svg>
